<?xml version="1.0" encoding="utf-8"?>
<!-- Generator: Adobe Illustrator 19.0.0, SVG Export Plug-In . SVG Version: 6.00 Build 0)  -->
<svg version="1.1" id="Layer_1" xmlns="http://www.w3.org/2000/svg" xmlns:xlink="http://www.w3.org/1999/xlink" x="0px" y="0px"
	 viewBox="0 0 80 80" style="enable-background:new 0 0 80 80;" xml:space="preserve">
<style type="text/css">
	.st0{fill:#FFC107;}
	.st1{fill:#FFEB3B;}
</style>
<g id="XMLID_1_">
	<path id="XMLID_3_" class="st0" d="M76.1,52.5l-12.7,4.2v13.4c0,0.4-0.2,0.9-0.6,1.1c-0.4,0.3-0.8,0.3-1.3,0.2l-12.7-4.1l-7.9,10.8
		c-0.3,0.3-0.7,0.6-1.1,0.6s-0.9-0.2-1.1-0.6l-7.9-10.8L18,71.4c-0.4,0.2-0.9,0.1-1.3-0.2c-0.3-0.3-0.6-0.7-0.6-1.1V56.7L3.4,52.5
		c-0.4-0.1-0.7-0.4-0.9-0.9c-0.1-0.4-0.1-0.9,0.2-1.3l7.9-10.8L2.7,28.7c-0.3-0.4-0.3-0.8-0.2-1.3C2.7,27,3,26.7,3.4,26.6l12.7-4.2
		V9c0-0.4,0.2-0.9,0.6-1.1c0.4-0.3,0.8-0.3,1.3-0.2l12.7,4.1L38.6,1c0.5-0.7,1.7-0.7,2.3,0l7.9,10.8l12.7-4.1
		c0.4-0.2,0.9-0.1,1.3,0.2c0.3,0.3,0.6,0.7,0.6,1.1v13.4l12.7,4.2c0.4,0.1,0.7,0.4,0.9,0.9c0.1,0.4,0.1,0.9-0.2,1.3l-7.9,10.8
		l7.9,10.8c0.3,0.3,0.3,0.8,0.2,1.3C76.8,52.1,76.5,52.4,76.1,52.5z M39.7,14.4c-13.9,0-25.1,11.3-25.1,25.1
		c0,13.9,11.3,25.1,25.1,25.1c13.9,0,25.1-11.3,25.1-25.1C64.9,25.7,53.6,14.4,39.7,14.4z"/>
</g>
<circle id="XMLID_2_" class="st1" cx="39.7" cy="39.3" r="22.9"/>
</svg>
