<?xml version="1.0" encoding="utf-8"?>
<!-- Generator: Adobe Illustrator 18.1.1, SVG Export Plug-In . SVG Version: 6.00 Build 0)  -->
<svg version="1.1" id="Layer_1" xmlns="http://www.w3.org/2000/svg" xmlns:xlink="http://www.w3.org/1999/xlink" x="0px" y="0px"
	 viewBox="0 0 441.8 56.3" enable-background="new 0 0 441.8 56.3" xml:space="preserve">
<g>
	<path fill="#FFFFFF" d="M31.6,44.1H17.5l-2.7,10.5H3.8l16-51.2h9.5l16.1,51.2h-11L31.6,44.1z M19.8,35.5h9.6l-4.8-18.2L19.8,35.5z"
		/>
	<path fill="#FFFFFF" d="M76.2,37.9l3.4-21.3h9.5l-7.9,38H73l-5.4-22l-5.4,22H54l-7.9-38h9.6L59,37.9l5.1-21.4h7.1L76.2,37.9z"/>
	<path fill="#FFFFFF" d="M109.4,55.3c-2.6,0-4.9-0.4-6.9-1.2c-2-0.8-3.7-1.9-5.1-3.4c-1.4-1.5-2.4-3.3-3.1-5.5
		c-0.7-2.2-1.1-4.6-1.1-7.4v-3.1c0-3.1,0.3-5.8,1-8.1c0.7-2.3,1.7-4.3,3-5.9s2.9-2.8,4.8-3.6c1.9-0.8,4-1.2,6.4-1.2
		c4.8,0,8.4,1.6,10.9,4.7c2.4,3.1,3.6,7.7,3.6,13.9v4.5h-19.8c0.1,1.5,0.3,2.8,0.6,3.8c0.3,1,0.8,1.9,1.4,2.5
		c0.6,0.6,1.3,1.1,2.1,1.4c0.8,0.3,1.8,0.4,2.8,0.4c1.8,0,3.3-0.3,4.7-0.9s2.6-1.4,3.6-2.5l3.9,6c-0.5,0.7-1.1,1.4-1.9,2
		c-0.8,0.7-1.7,1.3-2.8,1.8c-1.1,0.5-2.3,1-3.7,1.3C112.5,55.1,111.1,55.3,109.4,55.3z M108.4,24.1c-1.7,0-3,0.6-3.8,1.9
		c-0.8,1.2-1.2,3.2-1.4,6h9.9V31c0-2.3-0.4-4-1.1-5.2C111.3,24.7,110.1,24.1,108.4,24.1z"/>
	<path fill="#FFFFFF" d="M145.4,44.4c0-0.5-0.1-0.9-0.4-1.4c-0.2-0.4-0.6-0.8-1.2-1.2c-0.5-0.4-1.2-0.8-2.1-1.2s-1.9-0.9-3-1.4
		c-1.7-0.7-3.3-1.4-4.6-2.2s-2.5-1.6-3.4-2.5c-0.9-0.9-1.6-2-2.1-3.1c-0.5-1.2-0.7-2.5-0.7-4c0-1.6,0.3-3.1,0.9-4.5
		c0.6-1.4,1.5-2.6,2.6-3.7c1.1-1,2.5-1.9,4.1-2.5c1.6-0.6,3.5-0.9,5.5-0.9c2.1,0,4,0.3,5.7,0.9c1.7,0.6,3.1,1.4,4.3,2.4
		c1.2,1,2.1,2.3,2.7,3.8c0.6,1.5,0.9,3.1,0.9,4.9H145c0-1.5-0.3-2.6-0.9-3.4c-0.6-0.8-1.6-1.2-3-1.2c-1.1,0-1.9,0.3-2.6,1
		c-0.7,0.7-1,1.6-1,2.7c0,0.5,0.1,0.9,0.3,1.3c0.2,0.4,0.6,0.8,1.1,1.1c0.5,0.4,1.2,0.8,2,1.2c0.8,0.4,1.8,0.9,3,1.4
		c1.9,0.7,3.5,1.4,4.9,2.2c1.4,0.8,2.5,1.6,3.5,2.6s1.6,2,2,3.2c0.4,1.2,0.7,2.6,0.7,4.1c0,1.7-0.3,3.2-1,4.6
		c-0.7,1.4-1.6,2.6-2.8,3.6c-1.2,1-2.7,1.8-4.4,2.3c-1.7,0.6-3.6,0.8-5.7,0.8c-2.3,0-4.4-0.4-6.1-1.1c-1.8-0.7-3.3-1.7-4.4-2.8
		c-1.2-1.2-2.1-2.5-2.7-4c-0.6-1.5-0.9-3-0.9-4.6h9.5c0,1,0.2,1.9,0.4,2.5c0.3,0.7,0.6,1.2,1,1.6c0.4,0.4,0.9,0.7,1.5,0.8
		c0.6,0.2,1.2,0.2,2,0.2C144,48,145.4,46.8,145.4,44.4z"/>
	<path fill="#FFFFFF" d="M160.1,34.3c0-3,0.4-5.6,1.1-7.9c0.7-2.3,1.8-4.2,3.1-5.8c1.3-1.6,2.9-2.8,4.8-3.6c1.9-0.8,4-1.2,6.3-1.2
		c2.4,0,4.5,0.4,6.4,1.2s3.5,2,4.9,3.6c1.3,1.6,2.4,3.5,3.1,5.8c0.7,2.3,1.1,4.9,1.1,7.9v2.5c0,3-0.4,5.6-1.1,7.9
		c-0.7,2.3-1.7,4.2-3.1,5.8c-1.3,1.6-3,2.8-4.9,3.6s-4,1.2-6.4,1.2c-2.4,0-4.5-0.4-6.4-1.2s-3.5-2-4.9-3.6c-1.3-1.6-2.4-3.5-3.1-5.8
		c-0.7-2.3-1.1-4.9-1.1-7.9V34.3z M170.1,36.8c0,3.5,0.5,6.1,1.4,7.8c1,1.6,2.3,2.4,4,2.4c1.8,0,3.2-0.8,4.1-2.4
		c0.9-1.6,1.4-4.2,1.4-7.8v-2.5c0-3.5-0.5-6-1.4-7.7c-1-1.7-2.3-2.5-4.1-2.5c-1.7,0-3,0.8-4,2.5c-0.9,1.7-1.4,4.2-1.4,7.7V36.8z"/>
	<path fill="#FFFFFF" d="M206.4,16.5l0.3,3.5c1.1-1.3,2.3-2.4,3.8-3.1c1.5-0.7,3.1-1.1,5-1.1c1.8,0,3.3,0.4,4.7,1.2
		c1.4,0.8,2.5,2.1,3.3,3.9c1-1.6,2.3-2.9,3.8-3.8c1.5-0.9,3.4-1.4,5.5-1.4c1.5,0,2.9,0.3,4.2,0.8c1.3,0.5,2.3,1.3,3.2,2.5
		c0.9,1.1,1.6,2.6,2.1,4.5c0.5,1.9,0.7,4.1,0.7,6.8v24.2h-9.9V30.3c0-1.3-0.1-2.3-0.3-3.1c-0.2-0.8-0.4-1.4-0.8-1.9
		s-0.8-0.8-1.3-0.9s-1.1-0.3-1.7-0.3c-1,0-1.8,0.3-2.5,0.9c-0.7,0.6-1.2,1.4-1.7,2.5c0,0.3,0,0.5,0.1,0.8c0,0.3,0,0.6,0,0.8v25.3
		h-9.9V30.4c0-1.3-0.1-2.3-0.3-3.1s-0.4-1.4-0.8-1.9c-0.3-0.5-0.8-0.8-1.3-1c-0.5-0.2-1.1-0.3-1.7-0.3c-0.9,0-1.7,0.2-2.4,0.7
		s-1.2,1.2-1.7,2v27.6h-9.9v-38H206.4z"/>
	<path fill="#FFFFFF" d="M265.8,55.3c-2.6,0-4.9-0.4-6.9-1.2c-2-0.8-3.7-1.9-5.1-3.4c-1.4-1.5-2.4-3.3-3.1-5.5
		c-0.7-2.2-1.1-4.6-1.1-7.4v-3.1c0-3.1,0.3-5.8,1-8.1c0.7-2.3,1.7-4.3,3-5.9s2.9-2.8,4.8-3.6c1.9-0.8,4-1.2,6.4-1.2
		c4.8,0,8.4,1.6,10.9,4.7c2.4,3.1,3.6,7.7,3.6,13.9v4.5h-19.8c0.1,1.5,0.3,2.8,0.6,3.8c0.3,1,0.8,1.9,1.4,2.5
		c0.6,0.6,1.3,1.1,2.1,1.4c0.8,0.3,1.8,0.4,2.8,0.4c1.8,0,3.3-0.3,4.7-0.9s2.6-1.4,3.6-2.5l3.9,6c-0.5,0.7-1.1,1.4-1.9,2
		c-0.8,0.7-1.7,1.3-2.8,1.8c-1.1,0.5-2.3,1-3.7,1.3C268.9,55.1,267.4,55.3,265.8,55.3z M264.7,24.1c-1.7,0-3,0.6-3.8,1.9
		c-0.8,1.2-1.2,3.2-1.4,6h9.9V31c0-2.3-0.4-4-1.1-5.2C267.7,24.7,266.5,24.1,264.7,24.1z"/>
	<path fill="#FFFFFF" d="M321.2,54.6h-10.3L295.7,21v33.6h-10.3V3.4h10.3L310.9,37V3.4h10.3V54.6z"/>
	<path fill="#FFFFFF" d="M344.4,55.3c-2.6,0-4.9-0.4-6.9-1.2c-2-0.8-3.7-1.9-5.1-3.4c-1.4-1.5-2.4-3.3-3.1-5.5
		c-0.7-2.2-1.1-4.6-1.1-7.4v-3.1c0-3.1,0.3-5.8,1-8.1c0.7-2.3,1.7-4.3,3-5.9s2.9-2.8,4.8-3.6c1.9-0.8,4-1.2,6.4-1.2
		c4.8,0,8.4,1.6,10.9,4.7c2.4,3.1,3.6,7.7,3.6,13.9v4.5H338c0.1,1.5,0.3,2.8,0.6,3.8c0.3,1,0.8,1.9,1.4,2.5s1.3,1.1,2.1,1.4
		s1.8,0.4,2.8,0.4c1.8,0,3.3-0.3,4.7-0.9s2.6-1.4,3.6-2.5l3.9,6c-0.5,0.7-1.1,1.4-1.9,2s-1.7,1.3-2.8,1.8c-1.1,0.5-2.3,1-3.7,1.3
		S346,55.3,344.4,55.3z M343.3,24.1c-1.7,0-3,0.6-3.8,1.9c-0.8,1.2-1.2,3.2-1.4,6h9.9V31c0-2.3-0.4-4-1.1-5.2
		C346.2,24.7,345,24.1,343.3,24.1z"/>
	<path fill="#FFFFFF" d="M391.2,37.9l3.4-21.3h9.5l-7.9,38H388l-5.4-22l-5.4,22h-8.3l-7.9-38h9.6l3.4,21.4l5.1-21.4h7.1L391.2,37.9z
		"/>
	<path fill="#FFFFFF" d="M425.9,44.4c0-0.5-0.1-0.9-0.4-1.4c-0.2-0.4-0.6-0.8-1.2-1.2c-0.5-0.4-1.2-0.8-2.1-1.2s-1.9-0.9-3-1.4
		c-1.7-0.7-3.3-1.4-4.6-2.2s-2.5-1.6-3.4-2.5c-0.9-0.9-1.6-2-2.1-3.1s-0.7-2.5-0.7-4c0-1.6,0.3-3.1,0.9-4.5c0.6-1.4,1.5-2.6,2.6-3.7
		c1.1-1,2.5-1.9,4.1-2.5s3.5-0.9,5.5-0.9c2.1,0,4,0.3,5.7,0.9c1.7,0.6,3.1,1.4,4.3,2.4c1.2,1,2.1,2.3,2.7,3.8
		c0.6,1.5,0.9,3.1,0.9,4.9h-9.9c0-1.5-0.3-2.6-0.9-3.4c-0.6-0.8-1.6-1.2-3-1.2c-1.1,0-1.9,0.3-2.6,1c-0.7,0.7-1,1.6-1,2.7
		c0,0.5,0.1,0.9,0.3,1.3s0.6,0.8,1.1,1.1c0.5,0.4,1.2,0.8,2,1.2c0.8,0.4,1.8,0.9,3,1.4c1.9,0.7,3.5,1.4,4.9,2.2s2.5,1.6,3.5,2.6
		s1.6,2,2,3.2s0.7,2.6,0.7,4.1c0,1.7-0.3,3.2-1,4.6c-0.7,1.4-1.6,2.6-2.8,3.6s-2.7,1.8-4.4,2.3s-3.6,0.8-5.7,0.8
		c-2.3,0-4.4-0.4-6.1-1.1s-3.3-1.7-4.4-2.8c-1.2-1.2-2.1-2.5-2.7-4c-0.6-1.5-0.9-3-0.9-4.6h9.5c0,1,0.2,1.9,0.4,2.5s0.6,1.2,1,1.6
		c0.4,0.4,0.9,0.7,1.5,0.8c0.6,0.2,1.2,0.2,2,0.2C424.5,48,425.9,46.8,425.9,44.4z"/>
</g>
</svg>
