<?xml version="1.0" encoding="utf-8"?>
<!-- Generator: Adobe Illustrator 18.1.1, SVG Export Plug-In . SVG Version: 6.00 Build 0)  -->
<svg version="1.1" id="Layer_1" xmlns="http://www.w3.org/2000/svg" xmlns:xlink="http://www.w3.org/1999/xlink" x="0px" y="0px"
	 viewBox="0 0 175.3 175.3" enable-background="new 0 0 175.3 175.3" xml:space="preserve">
<circle fill="#FFC610" stroke="#000000" stroke-width="16" stroke-miterlimit="10" cx="87.6" cy="87.6" r="79.6"/>
<g>
	<path d="M47.4,63.7c5.8,0,10.8,2.1,14,5.4l-7.5,10.2c-2.1-1.7-3.8-2.3-5.6-2.3c-6.1,0-9.8,4.6-9.8,11.9c0,7.3,4,11.9,9.2,11.9
		c3.1,0,5.6-1.5,7.7-3.1L62,108c-4.8,4.2-11.1,6-16.1,6c-13.6,0-24.2-9.2-24.2-25.1C21.7,72.9,33.8,63.7,47.4,63.7z"/>
	<path d="M72.9,97.1c4.4,3.3,8.4,4.8,11.7,4.8c3.5,0,4.8-1,4.8-2.9c0-2.5-4.4-3.6-9.2-5.6c-5.6-2.2-12.1-6.3-12.1-14.2
		c0-9.4,7.7-15.6,19-15.6c7.9,0,13.4,3.2,17.7,6.3l-7.3,9.8c-3.5-2.5-6.8-4-9.8-4c-2.8,0-4.2,0.8-4.2,2.7c0,2.5,4.2,3.5,9,5.2
		c5.8,2.1,12.3,5.8,12.3,14.4c0,9-7.1,15.9-20.5,15.9c-6.1,0-13.6-2.7-18.6-6.7L72.9,97.1z"/>
	<path d="M116.3,97.1c4.4,3.3,8.4,4.8,11.7,4.8c3.5,0,4.8-1,4.8-2.9c0-2.5-4.4-3.6-9.2-5.6c-5.6-2.2-12.1-6.3-12.1-14.2
		c0-9.4,7.7-15.6,19-15.6c7.9,0,13.4,3.2,17.7,6.3l-7.3,9.8c-3.5-2.5-6.8-4-9.8-4c-2.8,0-4.2,0.8-4.2,2.7c0,2.5,4.2,3.5,9,5.2
		c5.8,2.1,12.3,5.8,12.3,14.4c0,9-7.1,15.9-20.5,15.9c-6.1,0-13.6-2.7-18.6-6.7L116.3,97.1z"/>
</g>
</svg>
