<?xml version="1.0" encoding="utf-8"?>
<!-- Generator: Adobe Illustrator 18.1.1, SVG Export Plug-In . SVG Version: 6.00 Build 0)  -->
<svg version="1.1" id="Layer_1" xmlns="http://www.w3.org/2000/svg" xmlns:xlink="http://www.w3.org/1999/xlink" x="0px" y="0px"
	 viewBox="0 0 40 17.6" enable-background="new 0 0 40 17.6" xml:space="preserve">
    <title>Menu</title>
<g>
	<path fill="#FFFFFF" d="M5.6,4l2.1,6.4l2-6.4h2.9v9.2h-2.2V11l0.2-4.4l-2.2,6.6H6.9L4.7,6.6L4.9,11v2.1H2.7V4H5.6z"/>
	<path fill="#FFFFFF" d="M19.8,9.3h-3.5v2.2h4.1v1.7H14V4h6.4v1.7h-4.1v1.9h3.5V9.3z"/>
	<path fill="#FFFFFF" d="M29,13.2h-2.2l-3.3-5.7v5.7h-2.2V4h2.2l3.3,5.7V4H29V13.2z"/>
	<path fill="#FFFFFF" d="M37.6,4v6c0,0.5-0.1,1-0.3,1.4c-0.2,0.4-0.4,0.8-0.7,1c-0.3,0.3-0.7,0.5-1.1,0.6c-0.4,0.1-0.9,0.2-1.5,0.2
		c-0.5,0-1-0.1-1.5-0.2c-0.4-0.1-0.8-0.4-1.1-0.6c-0.3-0.3-0.6-0.6-0.7-1c-0.2-0.4-0.3-0.9-0.3-1.4V4h2.2v6c0,0.6,0.1,1,0.4,1.2
		c0.2,0.3,0.6,0.4,1,0.4c0.5,0,0.8-0.1,1-0.4c0.2-0.3,0.4-0.7,0.4-1.2V4H37.6z"/>
</g>
</svg>
