<?xml version="1.0" encoding="utf-8"?>
<!-- Generator: Adobe Illustrator 19.1.0, SVG Export Plug-In . SVG Version: 6.00 Build 0)  -->
<svg version="1.1" id="Layer_1" xmlns="http://www.w3.org/2000/svg" xmlns:xlink="http://www.w3.org/1999/xlink" x="0px" y="0px"
	 viewBox="0 0 264 261" style="enable-background:new 0 0 264 261;" xml:space="preserve">
<style type="text/css">
	.st0{fill:#FFFFFF;}
</style>
<g>
	<path class="st0" d="M253.9,225.9c-3.8,8.8-13.8,14.5-21.8,19c-10.6,5.7-21.3,9.1-33.3,9.1c-16.6,0-31.7-6.8-46.9-12.4
		c-10.9-3.9-21.5-8.8-31.3-14.8c-30.4-18.8-67.1-55.5-85.9-85.9c-6.1-9.8-10.9-20.4-14.9-31.3C14.2,94.4,7.4,79.3,7.4,62.7
		c0-12,3.4-22.7,9.1-33.3c4.5-8,10.2-18.1,19-21.8C41.4,4.9,54,2,60.4,2c1.3,0,2.5,0,3.8,0.5c3.8,1.3,7.7,10,9.5,13.6
		c5.7,10.2,11.3,20.6,17.2,30.6c2.9,4.6,8.2,10.4,8.2,15.9c0,10.9-32.4,26.8-32.4,36.5c0,4.8,4.5,11.1,7,15.4
		c18.1,32.6,40.6,55.1,73.2,73.2c4.3,2.5,10.6,7,15.4,7c9.7,0,25.6-32.4,36.5-32.4c5.5,0,11.3,5.4,15.9,8.2
		c10,5.9,20.4,11.4,30.6,17.2c3.6,1.8,12.3,5.7,13.6,9.5c0.5,1.3,0.5,2.5,0.5,3.8C259.4,207.5,256.6,220,253.9,225.9z"/>
</g>
</svg>
