<?xml version="1.0" encoding="utf-8"?>
<svg version="1.1" id="HexagonWD" xmlns="http://www.w3.org/2000/svg" xmlns:xlink="http://www.w3.org/1999/xlink"
	  xml:space="preserve" viewBox="0 0 555 174">
     <defs>
        <style type="text/css">
         @media screen and (max-width: 20em) {
            [id=word-mark] {
                display: none;   
            }

            [id=hex] {
                 width: 100%;  
            }
        }
        </style>
    </defs>
<g id="hex">
	<polygon id="hexagonbg" points="55.2,162 10,86.5 55.2,11 145.5,11 190.7,86.5 145.5,162 	"/>
    <path id="letterH" fill="#FFFFFF" stroke="#000000" stroke-width="2.1528" stroke-miterlimit="10" d="M58,35.5h33v35.2h18.4V35.5
			h33.2v103.4h-33.2v-38.3H91v38.3H58V35.5z M77.5,126.5V87.3h45.6v39.2h4V47.9h-4v35.6H77.5V47.9h-4v78.6H77.5z"/>
</g>
<g id="word-mark">
	<g id="hexagon-word">
		<path id="h" d="M250.9,100.1h-12.6v-22h-18.7v22H207V47.5h12.7v20.9h18.7V47.5h12.6V100.1z"/>
		<path id="e" d="M291.6,77.8h-19.9v12.5h23.6v9.8H259V47.5h36.3v9.8h-23.6v11.1h19.9V77.8z"/>
		<path id="x" d="M320,64.9l8.6-17.5h14.5l-14.7,26.1l15.1,26.5h-14.6L320,82.2l-8.9,17.8h-14.6l15.1-26.5l-14.7-26.1h14.5
			L320,64.9z"/>
		<path id="a" d="M377.5,90.2h-17.4l-3,9.8h-13.5l19.3-52.6h11.9l19.4,52.6h-13.6L377.5,90.2z M363.1,80.4h11.3l-5.7-18.2
			L363.1,80.4z"/>
		<path id="g" d="M440.3,93.6c-0.7,0.7-1.6,1.5-2.8,2.4c-1.2,0.8-2.7,1.6-4.4,2.3s-3.7,1.3-6,1.8c-2.3,0.5-4.8,0.7-7.7,0.7
			c-3.5,0-6.7-0.6-9.5-1.7c-2.8-1.1-5.3-2.8-7.3-5s-3.6-4.8-4.7-8c-1.1-3.2-1.6-6.8-1.6-10.9v-2.9c0-4.1,0.6-7.7,1.7-10.9
			c1.1-3.2,2.7-5.9,4.6-8c2-2.2,4.4-3.8,7.1-5c2.7-1.1,5.8-1.7,9-1.7c3.6,0,6.8,0.4,9.4,1.3c2.6,0.9,4.8,2.1,6.5,3.7s3.1,3.5,4,5.7
			c0.9,2.2,1.5,4.6,1.8,7.2h-12.2c-0.2-1.3-0.5-2.5-0.9-3.5c-0.4-1-1-1.9-1.7-2.6c-0.7-0.7-1.6-1.2-2.6-1.6c-1-0.4-2.3-0.5-3.8-0.5
			c-1.5,0-2.9,0.3-4.1,1c-1.2,0.7-2.3,1.6-3.2,2.9c-0.9,1.3-1.5,3-2,4.9c-0.5,2-0.7,4.3-0.7,6.9v3c0,5.3,0.9,9.2,2.7,11.8
			c1.8,2.6,4.6,4,8.5,4c1,0,1.9-0.1,2.7-0.2c0.8-0.1,1.5-0.3,2.1-0.5c0.6-0.2,1.1-0.5,1.5-0.7c0.4-0.3,0.8-0.5,1-0.8v-8.2h-8.8v-8.7
			h21.5V93.6z"/>
		<path id="o" d="M492.2,74.8c0,4-0.6,7.6-1.7,10.8c-1.1,3.2-2.7,5.9-4.8,8.2c-2,2.2-4.5,4-7.3,5.1
			c-2.8,1.2-5.9,1.8-9.2,1.8c-3.4,0-6.5-0.6-9.3-1.8c-2.8-1.2-5.3-2.9-7.3-5.1c-2-2.2-3.6-5-4.8-8.2c-1.1-3.2-1.7-6.8-1.7-10.8v-2.1
			c0-4,0.6-7.6,1.7-10.8c1.1-3.2,2.7-5.9,4.7-8.2c2-2.2,4.5-4,7.3-5.2c2.8-1.2,5.9-1.8,9.3-1.8c3.3,0,6.4,0.6,9.2,1.8
			c2.8,1.2,5.2,2.9,7.3,5.2c2,2.2,3.6,5,4.8,8.2c1.1,3.2,1.7,6.8,1.7,10.8V74.8z M479.3,72.6c0-5.2-0.9-9.2-2.6-11.9
			c-1.7-2.7-4.2-4.1-7.5-4.1c-3.4,0-5.9,1.4-7.6,4.1c-1.7,2.7-2.5,6.7-2.5,11.9v2.2c0,5.2,0.9,9.1,2.6,11.9c1.7,2.8,4.3,4.2,7.6,4.2
			c3.2,0,5.7-1.4,7.4-4.1c1.7-2.8,2.6-6.7,2.6-11.9V72.6z"/>
		<path id="n" d="M542.7,100.1h-12.6l-18.6-32.7v32.7h-12.7V47.5h12.7l18.6,32.7V47.5h12.6V100.1z"/>
	</g>
	<g id="web-design-and-dev">
		<path id="w" d="M220.5,119.7l2-10.7h4.1l-3.6,17.1h-4.3l-2.3-9.7l-2.2,9.7h-4.3l-3.6-17.1h4.1l2,10.7l2.3-10.7h3.5
			L220.5,119.7z"/>
		<path id="e2" d="M238.7,118.8h-6.5v4.1h7.6v3.2h-11.8V109h11.8v3.2h-7.7v3.6h6.5V118.8z"/>
		<path id="b" d="M241.6,126.1V109h6.1c1.1,0,2,0.1,2.8,0.3s1.5,0.5,2.1,0.9s1,0.9,1.3,1.5s0.5,1.3,0.5,2.1
			c0,0.4,0,0.8-0.1,1.1s-0.2,0.7-0.4,1s-0.4,0.6-0.7,0.9s-0.7,0.5-1.1,0.6c0.5,0.1,0.9,0.3,1.3,0.6s0.6,0.5,0.9,0.9s0.4,0.7,0.5,1.1
			s0.1,0.8,0.1,1.2c0,1.7-0.5,3-1.6,3.8s-2.7,1.3-4.8,1.3H241.6z M245.7,116.1h2.1c0.9,0,1.5-0.2,1.9-0.5s0.6-0.8,0.6-1.4
			c0-0.7-0.2-1.2-0.6-1.6s-1.1-0.5-2-0.5h-2V116.1z M245.7,118.8v4.1h2.7c0.4,0,0.8-0.1,1.1-0.2s0.5-0.2,0.7-0.4s0.3-0.4,0.4-0.6
			s0.1-0.5,0.1-0.8c0-0.3,0-0.6-0.1-0.9s-0.2-0.5-0.4-0.7s-0.4-0.3-0.7-0.4s-0.6-0.2-1-0.2H245.7z"/>
		<path id="d" d="M263,126.1V109h5.5c1.2,0,2.2,0.2,3.2,0.6s1.8,1,2.5,1.7s1.2,1.6,1.6,2.6s0.6,2.1,0.6,3.3v0.7
			c0,1.2-0.2,2.3-0.6,3.3s-0.9,1.9-1.6,2.6s-1.5,1.3-2.5,1.7s-2,0.6-3.2,0.6H263z M267.1,112.2v10.7h1.4c1.2,0,2.1-0.4,2.7-1.3
			s0.9-2.1,0.9-3.7v-0.7c0-1.6-0.3-2.9-0.9-3.7s-1.6-1.3-2.8-1.3H267.1z"/>
		<path id="e3" d="M289.1,118.8h-6.5v4.1h7.6v3.2h-11.8V109h11.8v3.2h-7.7v3.6h6.5V118.8z"/>
		<path id="s" d="M300.8,121.5c0-0.3,0-0.5-0.1-0.7s-0.2-0.4-0.4-0.6s-0.5-0.4-0.9-0.6s-0.9-0.4-1.6-0.6
			c-0.8-0.2-1.5-0.5-2.2-0.8s-1.3-0.7-1.9-1.1s-1-0.9-1.3-1.5s-0.5-1.2-0.5-2c0-0.7,0.2-1.4,0.5-2s0.8-1.1,1.4-1.5s1.3-0.7,2.1-1
			s1.7-0.3,2.6-0.3c0.9,0,1.8,0.1,2.6,0.4s1.5,0.6,2,1.1s1,1,1.3,1.7s0.5,1.4,0.5,2.2h-4.1c0-0.3,0-0.6-0.1-0.9s-0.2-0.5-0.4-0.7
			s-0.4-0.3-0.7-0.5s-0.6-0.2-1-0.2c-0.4,0-0.7,0-1,0.1s-0.5,0.2-0.7,0.4s-0.3,0.3-0.5,0.6s-0.2,0.4-0.2,0.7c0,0.3,0.1,0.5,0.2,0.7
			s0.4,0.4,0.6,0.6s0.6,0.4,1,0.5s0.8,0.3,1.3,0.5c0.9,0.3,1.7,0.6,2.4,1s1.3,0.8,1.8,1.2s0.9,1,1.1,1.5s0.4,1.2,0.4,1.9
			c0,0.8-0.2,1.4-0.5,2s-0.7,1.1-1.3,1.5s-1.2,0.7-2,0.9s-1.6,0.3-2.6,0.3c-0.6,0-1.2,0-1.7-0.1s-1.1-0.2-1.7-0.5s-1-0.5-1.5-0.8
			s-0.9-0.7-1.2-1.1s-0.6-0.9-0.8-1.5s-0.3-1.2-0.3-1.8h4.1c0,0.5,0.1,0.9,0.2,1.3s0.3,0.6,0.6,0.8s0.6,0.4,0.9,0.5s0.8,0.1,1.3,0.1
			c0.4,0,0.7,0,1-0.1s0.5-0.2,0.7-0.4s0.3-0.3,0.4-0.5S300.8,121.8,300.8,121.5z"/>
		<path id="i" d="M311.4,126.1h-4.1V109h4.1V126.1z"/>
		<path id="g" d="M328.2,124c-0.2,0.2-0.5,0.5-0.9,0.8s-0.9,0.5-1.4,0.8s-1.2,0.4-2,0.6s-1.6,0.2-2.5,0.2
			c-1.1,0-2.2-0.2-3.1-0.6s-1.7-0.9-2.4-1.6s-1.2-1.6-1.5-2.6s-0.5-2.2-0.5-3.5v-0.9c0-1.3,0.2-2.5,0.5-3.5s0.9-1.9,1.5-2.6
			s1.4-1.2,2.3-1.6s1.9-0.6,2.9-0.6c1.2,0,2.2,0.1,3,0.4s1.5,0.7,2.1,1.2s1,1.1,1.3,1.8s0.5,1.5,0.6,2.3h-4
			c-0.1-0.4-0.2-0.8-0.3-1.1s-0.3-0.6-0.5-0.8s-0.5-0.4-0.9-0.5s-0.7-0.2-1.2-0.2c-0.5,0-0.9,0.1-1.3,0.3s-0.7,0.5-1,1
			s-0.5,1-0.7,1.6s-0.2,1.4-0.2,2.2v1c0,1.7,0.3,3,0.9,3.8s1.5,1.3,2.7,1.3c0.3,0,0.6,0,0.9-0.1s0.5-0.1,0.7-0.2s0.4-0.1,0.5-0.2
			s0.2-0.2,0.3-0.2v-2.6h-2.9v-2.8h7V124z"/>
		<path id="n2" d="M344.9,126.1h-4.1l-6-10.6v10.6h-4.1V109h4.1l6,10.6V109h4.1V126.1z"/>
		<path id="ampersand" d="M356.8,117.1c-0.5-0.7-0.8-1.3-1.1-1.9s-0.4-1.2-0.4-1.8c0-0.7,0.1-1.3,0.3-1.9s0.6-1.1,1-1.5
			s0.9-0.7,1.5-0.9s1.3-0.3,2-0.3c0.7,0,1.3,0.1,1.8,0.3s1,0.5,1.4,0.9s0.7,0.8,0.9,1.3s0.3,1,0.3,1.6c0,0.4-0.1,0.8-0.2,1.1
			s-0.3,0.7-0.5,1s-0.4,0.6-0.7,0.9s-0.6,0.5-0.9,0.8l-1,0.7l2.6,3c0.2-0.4,0.4-0.8,0.5-1.3s0.2-1,0.2-1.5h3.3c0,1.1-0.1,2.1-0.4,3
			s-0.7,1.8-1.2,2.5l2.6,3h-4.4l-0.8-0.9c-0.7,0.4-1.3,0.7-2,0.9s-1.5,0.3-2.3,0.3s-1.6-0.1-2.3-0.4s-1.3-0.6-1.8-1
			s-0.8-0.9-1.1-1.5s-0.4-1.2-0.4-1.9c0-0.5,0.1-0.9,0.2-1.3s0.3-0.8,0.6-1.1s0.6-0.7,0.9-1S356.3,117.4,356.8,117.1L356.8,117.1z
			 M359.6,123.3c0.7,0,1.3-0.2,2-0.5l-3.1-3.5l-0.1,0.1c-0.2,0.3-0.4,0.6-0.5,0.9s-0.2,0.6-0.2,1c0,0.3,0.1,0.6,0.2,0.8
			s0.2,0.5,0.4,0.7s0.4,0.3,0.6,0.4S359.4,123.3,359.6,123.3z M358.7,113.3c0,0.3,0.1,0.7,0.2,1s0.4,0.7,0.7,1l0.8-0.5
			c0.2-0.2,0.4-0.3,0.6-0.5s0.2-0.3,0.3-0.4s0.1-0.3,0.1-0.4s0-0.3,0-0.4c0-0.2,0-0.3-0.1-0.5s-0.1-0.3-0.3-0.4s-0.2-0.2-0.4-0.3
			s-0.3-0.1-0.5-0.1c-0.2,0-0.4,0-0.6,0.1s-0.3,0.2-0.4,0.3s-0.2,0.3-0.3,0.5S358.7,113.1,358.7,113.3z"/>
		<path id="d2" d="M376.6,126.1V109h5.5c1.2,0,2.2,0.2,3.2,0.6s1.8,1,2.5,1.7s1.2,1.6,1.6,2.6s0.6,2.1,0.6,3.3v0.7
			c0,1.2-0.2,2.3-0.6,3.3s-0.9,1.9-1.6,2.6s-1.5,1.3-2.5,1.7s-2,0.6-3.2,0.6H376.6z M380.7,112.2v10.7h1.4c1.2,0,2.1-0.4,2.7-1.3
			s0.9-2.1,0.9-3.7v-0.7c0-1.6-0.3-2.9-0.9-3.7s-1.6-1.3-2.8-1.3H380.7z"/>
		<path id="e4" d="M402.7,118.8h-6.5v4.1h7.6v3.2h-11.8V109h11.8v3.2h-7.7v3.6h6.5V118.8z"/>
		<path id="v" d="M412.1,121.4l3.4-12.4h4.6l-5.7,17.1h-4.5l-5.7-17.1h4.6L412.1,121.4z"/>
		<path id="e5" d="M432,118.8h-6.5v4.1h7.6v3.2h-11.8V109h11.8v3.2h-7.7v3.6h6.5V118.8z"/>
		<path id="l" d="M438.9,122.9h7.2v3.2h-11.3V109h4.1V122.9z"/>
		<path id="o2" d="M461.5,117.9c0,1.3-0.2,2.5-0.6,3.5s-0.9,1.9-1.5,2.6s-1.4,1.3-2.4,1.7s-1.9,0.6-3,0.6
			c-1.1,0-2.1-0.2-3-0.6s-1.7-0.9-2.4-1.7s-1.2-1.6-1.5-2.6s-0.6-2.2-0.6-3.5v-0.7c0-1.3,0.2-2.5,0.5-3.5s0.9-1.9,1.5-2.6
			s1.4-1.3,2.4-1.7s1.9-0.6,3-0.6c1.1,0,2.1,0.2,3,0.6s1.7,0.9,2.4,1.7s1.2,1.6,1.5,2.6s0.6,2.2,0.6,3.5V117.9z M457.3,117.2
			c0-1.7-0.3-3-0.8-3.9s-1.4-1.3-2.4-1.3c-1.1,0-1.9,0.4-2.5,1.3s-0.8,2.2-0.8,3.9v0.7c0,1.7,0.3,3,0.8,3.9s1.4,1.3,2.5,1.3
			c1,0,1.9-0.4,2.4-1.3s0.8-2.2,0.8-3.9V117.2z"/>
		<path id="p" d="M467.8,120.3v5.8h-4.1V109h6.8c1,0,1.9,0.1,2.8,0.4s1.5,0.7,2.1,1.2s1,1.1,1.3,1.8s0.5,1.5,0.5,2.3
			c0,0.8-0.2,1.6-0.5,2.2s-0.7,1.2-1.3,1.7s-1.3,0.9-2.1,1.1s-1.7,0.4-2.8,0.4H467.8z M467.8,117.1h2.7c0.4,0,0.8-0.1,1.1-0.2
			s0.6-0.3,0.8-0.5s0.3-0.4,0.4-0.7s0.1-0.6,0.1-0.9c0-0.4,0-0.7-0.1-1s-0.2-0.6-0.4-0.8s-0.5-0.4-0.8-0.6s-0.7-0.2-1.1-0.2h-2.7
			V117.1z"/>
		<path id="m" d="M484.7,109l3.8,11.9l3.8-11.9h5.4v17.1h-4.1v-4l0.4-8.2l-4.1,12.1h-2.7l-4.1-12.2l0.4,8.2v4h-4.1V109
			H484.7z"/>
		<path id="e6" d="M510.9,118.8h-6.5v4.1h7.6v3.2h-11.8V109h11.8v3.2h-7.7v3.6h6.5V118.8z"/>
		<path id="n3" d="M528,126.1h-4.1l-6-10.6v10.6h-4.1V109h4.1l6,10.6V109h4.1V126.1z"/>
		<path id="t" d="M543.6,112.2h-5.1v13.9h-4.1v-13.9h-5V109h14.3V112.2z"/>
	</g>
</g>
    <defs>
        <script type="text/javascript">
        <![CDATA[
            var svg, originalViewBox, mq, updateViewBox, supportsMatchMedia;
            
            supportsMatchMedia = (typeof matchMedia !== 'undefined');

            svg = document.querySelector('svg');

            /* Store the original value in a variable */
            originalViewBox = svg.getAttribute('viewBox');
            
            /* Define our media query and media query object */
            if ( supportsMatchMedia ) { 
                mq  = matchMedia("(max-width: 20em)");
            } else {
                mq = {};
                mq.matches = (window.innerWidth <= 320);
            }
            /* Define the handler */
            updateViewBox = function(){
                if (mq.matches) {
                    svg.setAttribute('viewBox', '0 0 200 174');
                    console.log(svg.getAttribute('viewBox')); 
                } else {
                    svg.setAttribute('viewBox', originalViewBox);
                }
            }
	        
            /* Fire on document load */
            svg.onload = updateViewBox;
            svg.addEventListener('SVGLoad', updateViewBox, true);

            /* Fire if the media condition changes */
            if (supportsMatchMedia) {
                mq.addListener(updateViewBox);
            }
           

        ]]>
        </script>
    </defs>
</svg>
